<mxfile host="app.diagrams.net" agent="Mozilla/5.0 (X11; Linux x86_64) AppleWebKit/537.36 (KHTML, like Gecko) Chrome/138.0.0.0 Safari/537.36" version="28.2.3">
  <diagram name="第 1 页" id="ytLrsxmjYRKp6ieVhupl">
    <mxGraphModel dx="1403" dy="784" grid="1" gridSize="10" guides="1" tooltips="1" connect="1" arrows="1" fold="1" page="1" pageScale="1" pageWidth="827" pageHeight="1169" math="0" shadow="0">
      <root>
        <mxCell id="0" />
        <mxCell id="1" parent="0" />
        <mxCell id="0EARbRujs-TBIKwj7hGL-1" style="edgeStyle=orthogonalEdgeStyle;rounded=0;orthogonalLoop=1;jettySize=auto;html=1;exitX=0.5;exitY=1;exitDx=0;exitDy=0;entryX=0.5;entryY=0;entryDx=0;entryDy=0;fontFamily=Helvetica;fontSize=12;fontColor=default;" edge="1" parent="1" source="0EARbRujs-TBIKwj7hGL-2" target="0EARbRujs-TBIKwj7hGL-4">
          <mxGeometry relative="1" as="geometry" />
        </mxCell>
        <mxCell id="0EARbRujs-TBIKwj7hGL-2" value="MPI Application" style="rounded=1;whiteSpace=wrap;html=1;fillColor=none;" vertex="1" parent="1">
          <mxGeometry x="169" y="50" width="180" height="50" as="geometry" />
        </mxCell>
        <mxCell id="0EARbRujs-TBIKwj7hGL-3" style="edgeStyle=orthogonalEdgeStyle;rounded=0;orthogonalLoop=1;jettySize=auto;html=1;exitX=0.5;exitY=1;exitDx=0;exitDy=0;entryX=0.5;entryY=0;entryDx=0;entryDy=0;fontFamily=Helvetica;fontSize=12;fontColor=default;" edge="1" parent="1" source="0EARbRujs-TBIKwj7hGL-4" target="0EARbRujs-TBIKwj7hGL-6">
          <mxGeometry relative="1" as="geometry" />
        </mxCell>
        <mxCell id="0EARbRujs-TBIKwj7hGL-4" value="MPI_Put" style="rounded=1;whiteSpace=wrap;html=1;fillColor=none;" vertex="1" parent="1">
          <mxGeometry x="169" y="120" width="180" height="50" as="geometry" />
        </mxCell>
        <mxCell id="0EARbRujs-TBIKwj7hGL-35" style="edgeStyle=orthogonalEdgeStyle;rounded=0;orthogonalLoop=1;jettySize=auto;html=1;exitX=0.5;exitY=1;exitDx=0;exitDy=0;entryX=0.5;entryY=0;entryDx=0;entryDy=0;" edge="1" parent="1" source="0EARbRujs-TBIKwj7hGL-6" target="0EARbRujs-TBIKwj7hGL-29">
          <mxGeometry relative="1" as="geometry" />
        </mxCell>
        <mxCell id="0EARbRujs-TBIKwj7hGL-6" value="OSC/RDMA" style="rounded=1;whiteSpace=wrap;html=1;fillColor=none;" vertex="1" parent="1">
          <mxGeometry x="169" y="190" width="180" height="50" as="geometry" />
        </mxCell>
        <mxCell id="0EARbRujs-TBIKwj7hGL-7" style="edgeStyle=orthogonalEdgeStyle;rounded=0;orthogonalLoop=1;jettySize=auto;html=1;exitX=0.5;exitY=1;exitDx=0;exitDy=0;entryX=0.5;entryY=0;entryDx=0;entryDy=0;fontFamily=Helvetica;fontSize=12;fontColor=default;" edge="1" parent="1" target="0EARbRujs-TBIKwj7hGL-9">
          <mxGeometry relative="1" as="geometry">
            <mxPoint x="279" y="300" as="sourcePoint" />
          </mxGeometry>
        </mxCell>
        <mxCell id="0EARbRujs-TBIKwj7hGL-16" style="edgeStyle=orthogonalEdgeStyle;rounded=0;orthogonalLoop=1;jettySize=auto;html=1;exitX=0.5;exitY=1;exitDx=0;exitDy=0;entryX=0.509;entryY=-0.02;entryDx=0;entryDy=0;entryPerimeter=0;" edge="1" parent="1" target="0EARbRujs-TBIKwj7hGL-11">
          <mxGeometry relative="1" as="geometry">
            <mxPoint x="279" y="370" as="sourcePoint" />
          </mxGeometry>
        </mxCell>
        <mxCell id="0EARbRujs-TBIKwj7hGL-24" style="edgeStyle=orthogonalEdgeStyle;rounded=0;orthogonalLoop=1;jettySize=auto;html=1;exitX=0.5;exitY=1;exitDx=0;exitDy=0;entryX=0.5;entryY=0;entryDx=0;entryDy=0;fontFamily=Helvetica;fontSize=12;fontColor=default;" edge="1" parent="1" source="0EARbRujs-TBIKwj7hGL-25" target="0EARbRujs-TBIKwj7hGL-27">
          <mxGeometry relative="1" as="geometry" />
        </mxCell>
        <mxCell id="0EARbRujs-TBIKwj7hGL-25" value="MPI Application" style="rounded=1;whiteSpace=wrap;html=1;fillColor=none;" vertex="1" parent="1">
          <mxGeometry x="479" y="50" width="180" height="50" as="geometry" />
        </mxCell>
        <mxCell id="0EARbRujs-TBIKwj7hGL-26" style="edgeStyle=orthogonalEdgeStyle;rounded=0;orthogonalLoop=1;jettySize=auto;html=1;exitX=0.5;exitY=1;exitDx=0;exitDy=0;entryX=0.5;entryY=0;entryDx=0;entryDy=0;fontFamily=Helvetica;fontSize=12;fontColor=default;" edge="1" parent="1" source="0EARbRujs-TBIKwj7hGL-27" target="0EARbRujs-TBIKwj7hGL-28">
          <mxGeometry relative="1" as="geometry" />
        </mxCell>
        <mxCell id="0EARbRujs-TBIKwj7hGL-27" value="MPI_Get" style="rounded=1;whiteSpace=wrap;html=1;fillColor=none;" vertex="1" parent="1">
          <mxGeometry x="479" y="120" width="180" height="50" as="geometry" />
        </mxCell>
        <mxCell id="0EARbRujs-TBIKwj7hGL-38" style="edgeStyle=orthogonalEdgeStyle;rounded=0;orthogonalLoop=1;jettySize=auto;html=1;exitX=0.5;exitY=1;exitDx=0;exitDy=0;" edge="1" parent="1" source="0EARbRujs-TBIKwj7hGL-28" target="0EARbRujs-TBIKwj7hGL-31">
          <mxGeometry relative="1" as="geometry" />
        </mxCell>
        <mxCell id="0EARbRujs-TBIKwj7hGL-28" value="OSC/RDMA" style="rounded=1;whiteSpace=wrap;html=1;fillColor=none;" vertex="1" parent="1">
          <mxGeometry x="479" y="190" width="180" height="50" as="geometry" />
        </mxCell>
        <mxCell id="0EARbRujs-TBIKwj7hGL-36" style="edgeStyle=orthogonalEdgeStyle;rounded=0;orthogonalLoop=1;jettySize=auto;html=1;exitX=0.5;exitY=1;exitDx=0;exitDy=0;entryX=0.5;entryY=0;entryDx=0;entryDy=0;" edge="1" parent="1" source="0EARbRujs-TBIKwj7hGL-29" target="0EARbRujs-TBIKwj7hGL-30">
          <mxGeometry relative="1" as="geometry" />
        </mxCell>
        <mxCell id="0EARbRujs-TBIKwj7hGL-29" value="BTL/self" style="rounded=1;whiteSpace=wrap;html=1;fillColor=none;" vertex="1" parent="1">
          <mxGeometry x="169" y="260" width="180" height="50" as="geometry" />
        </mxCell>
        <mxCell id="0EARbRujs-TBIKwj7hGL-37" style="edgeStyle=orthogonalEdgeStyle;rounded=0;orthogonalLoop=1;jettySize=auto;html=1;exitX=0.5;exitY=1;exitDx=0;exitDy=0;entryX=0.5;entryY=0;entryDx=0;entryDy=0;" edge="1" parent="1" source="0EARbRujs-TBIKwj7hGL-30" target="0EARbRujs-TBIKwj7hGL-33">
          <mxGeometry relative="1" as="geometry" />
        </mxCell>
        <mxCell id="0EARbRujs-TBIKwj7hGL-30" value="&amp;nbsp;mca_btl_self_put" style="rounded=1;whiteSpace=wrap;html=1;fillColor=none;" vertex="1" parent="1">
          <mxGeometry x="169" y="330" width="180" height="50" as="geometry" />
        </mxCell>
        <mxCell id="0EARbRujs-TBIKwj7hGL-39" style="edgeStyle=orthogonalEdgeStyle;rounded=0;orthogonalLoop=1;jettySize=auto;html=1;exitX=0.5;exitY=1;exitDx=0;exitDy=0;entryX=0.5;entryY=0;entryDx=0;entryDy=0;" edge="1" parent="1" source="0EARbRujs-TBIKwj7hGL-31" target="0EARbRujs-TBIKwj7hGL-32">
          <mxGeometry relative="1" as="geometry" />
        </mxCell>
        <mxCell id="0EARbRujs-TBIKwj7hGL-31" value="BTL/self" style="rounded=1;whiteSpace=wrap;html=1;fillColor=none;" vertex="1" parent="1">
          <mxGeometry x="479" y="260" width="180" height="50" as="geometry" />
        </mxCell>
        <mxCell id="0EARbRujs-TBIKwj7hGL-40" style="edgeStyle=orthogonalEdgeStyle;rounded=0;orthogonalLoop=1;jettySize=auto;html=1;exitX=0.5;exitY=1;exitDx=0;exitDy=0;entryX=0.5;entryY=0;entryDx=0;entryDy=0;" edge="1" parent="1" source="0EARbRujs-TBIKwj7hGL-32" target="0EARbRujs-TBIKwj7hGL-34">
          <mxGeometry relative="1" as="geometry" />
        </mxCell>
        <mxCell id="0EARbRujs-TBIKwj7hGL-32" value="&amp;nbsp;mca_btl_self_get" style="rounded=1;whiteSpace=wrap;html=1;fillColor=none;" vertex="1" parent="1">
          <mxGeometry x="479" y="330" width="180" height="50" as="geometry" />
        </mxCell>
        <mxCell id="0EARbRujs-TBIKwj7hGL-33" value="memcpy" style="rounded=1;whiteSpace=wrap;html=1;fillColor=none;" vertex="1" parent="1">
          <mxGeometry x="169" y="400" width="180" height="50" as="geometry" />
        </mxCell>
        <mxCell id="0EARbRujs-TBIKwj7hGL-34" value="memcpy" style="rounded=1;whiteSpace=wrap;html=1;fillColor=none;" vertex="1" parent="1">
          <mxGeometry x="479" y="400" width="180" height="50" as="geometry" />
        </mxCell>
      </root>
    </mxGraphModel>
  </diagram>
</mxfile>
